<?xml version="1.0" encoding="UTF-8" standalone="no"?>
<!-- Created with Inkscape (http://www.inkscape.org/) -->

<svg
   xmlns:dc="http://purl.org/dc/elements/1.1/"
   xmlns:cc="http://creativecommons.org/ns#"
   xmlns:rdf="http://www.w3.org/1999/02/22-rdf-syntax-ns#"
   xmlns:svg="http://www.w3.org/2000/svg"
   xmlns="http://www.w3.org/2000/svg"
   xmlns:sodipodi="http://sodipodi.sourceforge.net/DTD/sodipodi-0.dtd"
   xmlns:inkscape="http://www.inkscape.org/namespaces/inkscape"
   width="130.34511mm"
   height="110.363mm"
   viewBox="0 0 130.34511 110.363"
   version="1.1"
   id="svg8"
   inkscape:version="0.92.4 (5da689c313, 2019-01-14)"
   sodipodi:docname="logo.svg">
  <defs
     id="defs2" />
  <sodipodi:namedview
     id="base"
     pagecolor="#ffffff"
     bordercolor="#666666"
     borderopacity="1.0"
     inkscape:pageopacity="0.0"
     inkscape:pageshadow="2"
     inkscape:zoom="0.49497475"
     inkscape:cx="355.49379"
     inkscape:cy="245.53187"
     inkscape:document-units="mm"
     inkscape:current-layer="layer1"
     showgrid="false"
     inkscape:window-width="2400"
     inkscape:window-height="1271"
     inkscape:window-x="2391"
     inkscape:window-y="-9"
     inkscape:window-maximized="1" />
  <metadata
     id="metadata5">
    <rdf:RDF>
      <cc:Work
         rdf:about="">
        <dc:format>image/svg+xml</dc:format>
        <dc:type
           rdf:resource="http://purl.org/dc/dcmitype/StillImage" />
        <dc:title></dc:title>
      </cc:Work>
    </rdf:RDF>
  </metadata>
  <g
     inkscape:label="Layer 1"
     inkscape:groupmode="layer"
     id="layer1"
     transform="translate(-31.589353,-83.068501)">
    <g
       id="g3765"
       transform="matrix(0.26458333,0,0,0.26458333,17.956152,59.478251)">
      <g
         id="g3717">
	<path
   id="path3715"
   d="m 238.19,112.7 c -13.59,0 -25.8,7.55 -31.88,19.7 L 82.68,379.59 c -11.13,22.25 -9.96,48.18 3.12,69.34 13.08,21.17 35.74,33.8 60.63,33.8 h 338.54 c 19.66,0 35.65,-15.99 35.65,-35.64 V 148.35 c 0,-19.66 -15.99,-35.65 -35.65,-35.65 z"
   class="st1"
   inkscape:connector-curvature="0"
   style="fill:#1b2935" />

</g>
      <path
         id="path3719"
         d="m 415.31,349.02 c 5.23,-2.53 11.35,-3.98 18.02,-3.98 0.9,0 1.81,0.03 2.72,0.08 l 25.54,-81.43 h -19.4 l -11.69,39.88 h -0.22 l -12.24,-39.88 h -19.51 l 22.71,65.27 z"
         class="st0"
         inkscape:connector-curvature="0"
         style="fill:#f47920" />
      <path
         id="path3721"
         d="m 369.66,263.69 v 37.57 c 0,7.78 -6.7,14.11 -14.93,14.11 -8.23,0 -14.93,-6.33 -14.93,-14.11 v -37.57 h -18.36 v 37.57 c 0,17.35 14.93,31.46 33.29,31.46 5.95,0 11.53,-1.5 16.37,-4.1 v 4.1 h 16.92 v -31.46 -35.76 -1.81 z"
         class="st0"
         inkscape:connector-curvature="0"
         style="fill:#f47920" />
      <path
         id="path3723"
         d="m 275.98,261.52 c -6.66,0 -12.88,1.87 -18.22,5.07 v -26.41 h -17.38 v 92.54 h 17.38 v -5.07 c 5.34,3.2 11.56,5.07 18.22,5.07 19.63,0 35.6,-15.97 35.6,-35.6 0.01,-19.63 -15.96,-35.6 -35.6,-35.6 z m 0,53.82 c -10.05,0 -18.22,-8.17 -18.22,-18.22 0,-10.05 8.17,-18.22 18.22,-18.22 10.05,0 18.22,8.17 18.22,18.22 0,10.05 -8.17,18.22 -18.22,18.22 z"
         class="st0"
         inkscape:connector-curvature="0"
         style="fill:#f47920" />
      <path
         id="path3725"
         d="m 425.19,240.18 c 14.58,0 27.12,-8.83 32.59,-21.41 H 437.6 c -3.31,2.92 -7.66,4.7 -12.41,4.7 -7.68,0 -14.28,-4.63 -17.2,-11.23 h 34.41 c 0,0 0,0 0,0 h 17.5 c 0.53,-2.45 0.82,-4.98 0.82,-7.58 0,-19.59 -15.94,-35.52 -35.52,-35.52 -19.59,0 -35.52,15.94 -35.52,35.52 0,19.58 15.92,35.52 35.51,35.52 z m 0,-54.33 c 7.72,0 14.37,4.68 17.26,11.35 h -34.52 c 2.89,-6.67 9.54,-11.35 17.26,-11.35 z"
         class="st3"
         inkscape:connector-curvature="0"
         style="fill:#ffffff" />
      <polygon
         id="polygon3727"
         points="369.65,169.11 355.52,212.78 341.54,169.57 341.4,169.11 322.35,169.11 322.2,169.57 308.22,212.78 294.09,169.11 274.75,169.11 297.73,240.11 318.71,240.11 331.87,199.44 345.03,240.11 366.01,240.11 388.99,169.11 "
         class="st3"
         style="fill:#ffffff" />
      <g
         id="g3731">
	<path
   id="path3729"
   d="M 484.97,506.28 H 146.43 c -33.1,0 -63.25,-16.81 -80.66,-44.97 -17.4,-28.16 -18.95,-62.64 -4.14,-92.25 L 185.26,121.87 c 10.09,-20.18 30.37,-32.71 52.94,-32.71 h 246.78 c 32.64,0 59.19,26.55 59.19,59.19 v 298.74 c -0.01,32.63 -26.56,59.19 -59.2,59.19 z M 238.19,112.7 c -13.59,0 -25.8,7.55 -31.88,19.7 L 82.68,379.59 c -11.13,22.25 -9.96,48.18 3.12,69.34 13.08,21.17 35.74,33.8 60.63,33.8 h 338.54 c 19.66,0 35.65,-15.99 35.65,-35.64 V 148.35 c 0,-19.66 -15.99,-35.65 -35.65,-35.65 H 238.19 Z"
   class="st0"
   inkscape:connector-curvature="0"
   style="fill:#f47920" />

</g>
      <g
         id="g3741">
	<path
   id="path3733"
   d="m 407.17,354.6 c -1.57,-0.21 -3.16,-0.36 -4.45,-0.36 -6.65,0 -12.86,1.87 -18.19,5.06 v -3.07 h -17.35 v 66.96 h 17.35 v -33.42 c 0,-8.4 5.74,-15.46 13.5,-17.54 0.82,-6.91 4.11,-12.98 9.14,-17.63 z"
   class="st3"
   inkscape:connector-curvature="0"
   style="fill:#ffffff" />

	<path
   id="path3735"
   d="m 434.04,424.85 c 14.51,0 26.66,-8.49 26.66,-22.3 0,-14.16 -11.8,-17.46 -22.88,-20.53 -5.19,-1.53 -10.03,-3.54 -10.03,-7.08 0,-1.77 1.42,-4.36 5.54,-4.36 5.78,0 6.02,3.54 6.13,4.95 h 19.23 c -1.65,-17.22 -16.51,-20.64 -25.13,-20.64 -13.57,0 -25.36,8.61 -25.36,21.59 0,8.85 7.08,14.39 15.57,17.1 12.5,4.84 17.34,5.43 17.34,10.5 0,3.18 -3.54,5.07 -6.84,5.07 -0.83,0 -6.61,0 -7.43,-6.02 h -19.46 c 1.76,17.24 16.75,21.72 26.66,21.72 z"
   class="st3"
   inkscape:connector-curvature="0"
   style="fill:#ffffff" />

	<path
   id="path3737"
   d="m 236.59,371.59 c 7.67,0 14.23,4.77 16.9,11.5 h 17.99 c -3.14,-16.41 -17.58,-28.85 -34.88,-28.85 -19.59,0 -35.54,15.94 -35.54,35.54 0,19.6 15.94,35.54 35.54,35.54 17.31,0 31.74,-12.44 34.88,-28.85 h -17.99 c -2.67,6.73 -9.23,11.5 -16.9,11.5 -10.03,0 -18.19,-8.16 -18.19,-18.19 0,-10.03 8.16,-18.19 18.19,-18.19 z"
   class="st3"
   inkscape:connector-curvature="0"
   style="fill:#ffffff" />

	<path
   id="path3739"
   d="m 352.4,423.2 v -66.96 h -17.35 v 3.07 c -5.33,-3.19 -11.54,-5.06 -18.19,-5.06 -19.59,0 -35.54,15.94 -35.54,35.54 0,19.6 15.94,35.54 35.54,35.54 6.65,0 12.86,-1.87 18.19,-5.06 v 2.95 h 17.35 z m -35.54,-15.24 c -10.03,0 -18.19,-8.16 -18.19,-18.19 0,-10.03 8.16,-18.19 18.19,-18.19 10.03,0 18.19,8.16 18.19,18.19 0,10.03 -8.16,18.19 -18.19,18.19 z"
   class="st3"
   inkscape:connector-curvature="0"
   style="fill:#ffffff" />

</g>
    </g>
  </g>
  <style
     id="style3713"
     type="text/css">
	.st0{fill:#F47920;}
	.st1{fill:#1B2935;}
	.st2{fill:#141920;}
	.st3{fill:#FFFFFF;}
	.st4{fill:#F37A21;}
	.st5{fill:#002B44;}
</style>
</svg>
